<?xml version="1.0" encoding="utf-8"?>
<!-- Generator: Adobe Illustrator 18.1.1, SVG Export Plug-In . SVG Version: 6.00 Build 0)  -->
<!DOCTYPE svg PUBLIC "-//W3C//DTD SVG 1.1//EN" "http://www.w3.org/Graphics/SVG/1.1/DTD/svg11.dtd">
<svg version="1.1" id="Layer_1" xmlns="http://www.w3.org/2000/svg" xmlns:xlink="http://www.w3.org/1999/xlink" x="0px" y="0px"
	 viewBox="0 92 612 596" style="enable-background:new 0 92 612 596;" xml:space="preserve">
<style type="text/css">
	.st0{fill:#D1D3D4;stroke:#000000;stroke-width:10;stroke-miterlimit:10;}
	.st1{clip-path:url(#SVGID_2_);stroke:#D0D2D3;stroke-miterlimit:10;}
	.st2{clip-path:url(#SVGID_4_);}
	.st3{fill:#D0D2D3;stroke:#000000;stroke-miterlimit:10;}
	.st4{fill:#808184;stroke:#000000;stroke-miterlimit:10;}
	.st5{fill:#A6A8AB;stroke:#000000;stroke-miterlimit:10;}
	.st6{fill:#A6A8AB;}
</style>
<g>
	<polygon points="168.3,628.2 30.8,390 168.3,151.6 443.5,151.6 581.2,390 443.5,628.2 	"/>
	<polygon class="st0" points="67.6,252.3 305.8,114.8 544.2,252.3 544.2,527.5 305.8,665.2 67.6,527.5 	"/>
	<path d="M359.7,200.9c65.4,22.3,112.4,84.3,112.4,157.2c0,91.7-74.4,166.1-166.1,166.1c-91.9-0.1-166.1-74.4-166.1-166.1
		c0-72.9,47-134.9,112.4-157.2c-80.3,23.3-139.2,97.4-139.2,185.3c0,106.5,86.4,192.9,192.9,192.9s192.9-86.4,192.9-192.9
		C498.9,298.3,440,224.1,359.7,200.9z"/>
	<g>
		<g>
			<g>
				<defs>
					<circle id="SVGID_1_" cx="306" cy="360" r="120.3"/>
				</defs>
				<clipPath id="SVGID_2_">
					<use xlink:href="#SVGID_1_"  style="overflow:visible;"/>
				</clipPath>
				<circle class="st1" cx="305.8" cy="360" r="120.3"/>
			</g>
			<g>
				<defs>
					<circle id="SVGID_3_" cx="306" cy="360" r="120.3"/>
				</defs>
				<clipPath id="SVGID_4_">
					<use xlink:href="#SVGID_3_"  style="overflow:visible;"/>
				</clipPath>
				<g class="st2">
					<g>
						
							<rect x="247.6" y="219.2" transform="matrix(-0.7071 0.7071 -0.7071 -0.7071 666.4669 309.7651)" class="st3" width="42.9" height="147.5"/>
						
							<rect x="217.2" y="249.5" transform="matrix(-0.7071 0.7071 -0.7071 -0.7071 636.0401 383.0859)" class="st4" width="42.9" height="147.5"/>
					</g>
					<polygon class="st5" points="306,360.2 336.5,329.7 347.6,371.3 358.7,412.9 317.1,401.8 275.5,390.7 					"/>
					<g>
						<polygon points="330.4,403.6 349.4,384.6 356.3,410.5 						"/>
						<g>
							<path class="st6" d="M349.1,385.5l3.3,12.2l3.3,12.2l-12.2-3.3l-12.2-3.3l8.9-8.9L349.1,385.5 M349.6,383.6l-10.1,10.1
								l-10.1,10.1l13.8,3.7l13.8,3.7l-3.7-13.8L349.6,383.6L349.6,383.6z"/>
						</g>
					</g>
				</g>
			</g>
		</g>
	</g>
</g>
</svg>
