<?xml version="1.0" encoding="utf-8"?>
<!-- Generator: Adobe Illustrator 18.1.1, SVG Export Plug-In . SVG Version: 6.00 Build 0)  -->
<!DOCTYPE svg PUBLIC "-//W3C//DTD SVG 1.1//EN" "http://www.w3.org/Graphics/SVG/1.1/DTD/svg11.dtd">
<svg version="1.1" xmlns="http://www.w3.org/2000/svg" xmlns:xlink="http://www.w3.org/1999/xlink" x="0px" y="0px"
	 viewBox="0 0 326 331" style="enable-background:new 0 0 326 331;" xml:space="preserve">
<style type="text/css">
	.st0{fill:#D1D3D4;}
	.st1{fill:none;stroke:#D1D3D4;stroke-width:4;stroke-miterlimit:10;}
</style>
<g id="Menard_Media">
</g>
<g id="Moon">
</g>
<g id="Arrow">
</g>
<g id="Line_1">
</g>
<g id="Line_2">
</g>
<g id="M">
	<g>
		<path class="st0" d="M204.4,19.8C254.8,37,291,84.7,291,140.9c0,70.7-57.3,128-128,128c-70.7,0-128-57.3-128-128
			C35,84.7,71.2,37,121.6,19.8C59.6,37.7,14.3,94.8,14.3,162.6c0,82.1,66.6,148.7,148.7,148.7c82.1,0,148.7-66.6,148.7-148.7
			C311.7,94.8,266.4,37.7,204.4,19.8z"/>
		<polyline class="st1" points="180.3,243.4 163,256.7 145.7,243.4 		"/>
		<line class="st1" x1="128.4" y1="226.8" x2="197.6" y2="226.8"/>
		<line class="st1" x1="103.5" y1="210.2" x2="222.5" y2="210.2"/>
		<polyline class="st1" points="103.5,195.5 103.5,50.8 197.6,123.2 		"/>
		<polyline class="st1" points="222.5,195.5 222.5,50.8 128.4,123.2 		"/>
	</g>
	<g>
	</g>
	<g>
	</g>
	<g>
	</g>
	<g>
	</g>
	<g>
	</g>
	<g>
	</g>
</g>
</svg>
