<?xml version="1.0" encoding="utf-8"?>
<!-- Generator: Adobe Illustrator 18.1.1, SVG Export Plug-In . SVG Version: 6.00 Build 0)  -->
<!DOCTYPE svg PUBLIC "-//W3C//DTD SVG 1.1//EN" "http://www.w3.org/Graphics/SVG/1.1/DTD/svg11.dtd">
<svg version="1.1" xmlns="http://www.w3.org/2000/svg" xmlns:xlink="http://www.w3.org/1999/xlink" x="0px" y="0px"
	 viewBox="0 0 540 75" style="enable-background:new 0 0 540 75;" xml:space="preserve">
<style type="text/css">
	.st0{fill:none;stroke:#000000;stroke-width:2;stroke-miterlimit:10;}
	.st1{stroke:#000000;stroke-width:0.75;stroke-miterlimit:10;}
	.st2{fill:none;stroke:#000000;stroke-width:1.75;stroke-miterlimit:10;}
	.st3{stroke:#000000;stroke-width:0.5;stroke-miterlimit:10;}
</style>
<g id="Menard_Media">
	<g>
		<g>
			<g>
				<polyline class="st0" points="17.9,60.9 17.9,14.1 48.3,37.5 				"/>
				<polyline class="st0" points="56.4,60.9 56.4,14.1 26,37.5 				"/>
			</g>
			<g>
				<polyline class="st0" points="101.3,14.8 62.9,14.8 62.9,60.2 101.3,60.2 				"/>
				<line class="st0" x1="82.1" y1="29.2" x2="62.9" y2="29.2"/>
			</g>
			<g>
				<polyline class="st0" points="105.8,60.9 105.8,14.1 144.3,60.9 144.3,14.1 				"/>
				<line class="st0" x1="105.8" y1="37.5" x2="144.3" y2="37.5"/>
			</g>
			<g>
				<g>
					<path class="st1" d="M274.5,37.5c0,12.8-10.7,23.2-23.9,23.2h-14.5H236V14.2h0.1h14.5C263.8,14.2,274.5,24.6,274.5,37.5z
						 M273.3,37.5c0-12.2-10.2-22.1-22.7-22.1h-13.3v44.1h13.3C263.1,59.5,273.3,49.6,273.3,37.5z"/>
				</g>
				<path class="st2" d="M237,37.5h36.5H237z"/>
			</g>
			<g>
				<path class="st3" d="M197.5,38.1l33.6,23h-2.3l-33.6-23h-1.9v23h-1.6V13.8h23.7c8.7,0,15.7,5.4,15.7,12.2
					c0,6.7-7.1,12.1-15.7,12.1H197.5z M193.2,36.9h22.1c7.7,0,14.1-4.9,14.1-10.9c0-6-6.4-10.9-14.1-10.9h-22.1V36.9z"/>
			</g>
			<g>
				<polyline class="st0" points="187.2,61.2 177.1,36.1 168,13.8 148.8,61.2 				"/>
				<polyline class="st0" points="158.8,36.4 158.8,36.4 177.2,36.4 				"/>
				<line class="st0" x1="162.6" y1="27.2" x2="173.4" y2="27.2"/>
			</g>
		</g>
		<g>
			<g>
				<line class="st0" x1="440.2" y1="15.3" x2="476.7" y2="15.3"/>
				<polyline class="st0" points="440.2,59.7 458.4,59.7 476.7,59.7 				"/>
				<line class="st0" x1="458.4" y1="15.3" x2="458.4" y2="59.7"/>
			</g>
			<g>
				<polyline class="st0" points="312.3,60.9 312.3,14.1 342.8,37.5 				"/>
				<polyline class="st0" points="350.8,60.9 350.8,14.1 320.4,37.5 				"/>
			</g>
			<g>
				<polyline class="st0" points="395.4,14.8 357,14.8 357,60.2 395.4,60.2 				"/>
				<line class="st0" x1="376.2" y1="29.2" x2="357" y2="29.2"/>
			</g>
			<g>
				<polyline class="st0" points="522.1,61.2 511.9,36.1 502.8,13.8 483.6,61.2 				"/>
				<polyline class="st0" points="493.7,36.4 493.7,36.4 512,36.4 				"/>
				<line class="st0" x1="497.4" y1="27.2" x2="508.3" y2="27.2"/>
			</g>
			<g>
				<g>
					<path class="st1" d="M440.7,37.5c0,13-10.9,23.6-24.3,23.6h-14.7h-0.1V13.8h0.1h14.7C429.8,13.8,440.7,24.4,440.7,37.5z
						 M439.5,37.5c0-12.4-10.3-22.4-23.1-22.4h-13.5v44.8h13.5C429.1,59.9,439.5,49.8,439.5,37.5z"/>
				</g>
				<path class="st2" d="M402.6,37.5h37.1H402.6z"/>
			</g>
		</g>
	</g>
</g>
<g id="Moon">
</g>
<g id="Arrow">
</g>
<g id="Line_1">
</g>
<g id="Line_2">
</g>
<g id="M">
	<g>
	</g>
	<g>
	</g>
	<g>
	</g>
	<g>
	</g>
	<g>
	</g>
	<g>
	</g>
</g>
</svg>
