<?xml version="1.0" encoding="utf-8"?>
<!-- Generator: Adobe Illustrator 18.1.1, SVG Export Plug-In . SVG Version: 6.00 Build 0)  -->
<!DOCTYPE svg PUBLIC "-//W3C//DTD SVG 1.1//EN" "http://www.w3.org/Graphics/SVG/1.1/DTD/svg11.dtd">
<svg version="1.1" id="Layer_1" xmlns="http://www.w3.org/2000/svg" xmlns:xlink="http://www.w3.org/1999/xlink" x="0px" y="0px"
	 viewBox="0 0 612 792" style="enable-background:new 0 0 612 792;" xml:space="preserve">
<style type="text/css">
	.st0{fill:#D1D3D4;stroke:#000000;stroke-width:10;stroke-miterlimit:10;}
	.st1{stroke:#000000;stroke-miterlimit:10;}
	.st2{fill:#D1D3D4;}
</style>
<g>
	<polygon points="168.3,634.2 30.8,396 168.3,157.6 443.5,157.6 581.2,396 443.5,634.2 	"/>
	<polygon class="st0" points="67.6,258.3 305.8,120.8 544.2,258.3 544.2,533.5 305.8,671.2 67.6,533.5 	"/>
	<path d="M359.7,206.9c65.4,22.3,112.4,84.3,112.4,157.2c0,91.7-74.4,166.1-166.1,166.1c-91.9-0.1-166.1-74.4-166.1-166.1
		c0-72.9,47-134.9,112.4-157.2c-80.3,23.3-139.2,97.4-139.2,185.3c0,106.5,86.4,192.9,192.9,192.9s192.9-86.4,192.9-192.9
		C498.9,304.3,440,230.1,359.7,206.9z"/>
	<g>
		<circle class="st1" cx="305.9" cy="364" r="120"/>
		<g>
			<polygon class="st2" points="271.3,364 271.3,294.2 331.7,329.1 392.2,364 331.7,398.9 271.3,433.8 			"/>
			<g>
				<polygon class="st2" points="252.1,298.7 252.1,429.3 260,433.8 260,364 260,294.2 				"/>
			</g>
		</g>
	</g>
</g>
</svg>
