<?xml version="1.0" encoding="utf-8"?>
<!-- Generator: Adobe Illustrator 18.1.1, SVG Export Plug-In . SVG Version: 6.00 Build 0)  -->
<!DOCTYPE svg PUBLIC "-//W3C//DTD SVG 1.1//EN" "http://www.w3.org/Graphics/SVG/1.1/DTD/svg11.dtd">
<svg version="1.1" id="Layer_1" xmlns="http://www.w3.org/2000/svg" xmlns:xlink="http://www.w3.org/1999/xlink" x="0px" y="0px"
	 viewBox="0 0 372.5 378.8" style="enable-background:new 0 0 372.5 378.8;" xml:space="preserve">
<style type="text/css">
	.st0{fill:#D1D3D4;stroke:#000000;stroke-width:10;stroke-miterlimit:10;}
	.st1{stroke:#D1D3D4;stroke-width:10;stroke-miterlimit:10;}
</style>
<polygon points="102.5,334.4 18.8,189.4 102.5,44.3 270,44.3 353.8,189.4 270,334.4 "/>
<polygon class="st0" points="41.2,105.6 186.2,21.9 331.3,105.6 331.3,273.1 186.2,356.9 41.2,273.1 "/>
<path d="M219,74.3c39.8,13.6,68.4,51.3,68.4,95.7c0,55.8-45.3,101.1-101.1,101.1C130.4,271,85.2,225.8,85.2,170
	c0-44.4,28.6-82.1,68.4-95.7c-48.9,14.2-84.7,59.3-84.7,112.8c0,64.8,52.6,117.4,117.4,117.4c64.8,0,117.4-52.6,117.4-117.4
	C303.7,133.6,267.9,88.4,219,74.3z"/>
<g>
	<polygon points="218.6,137 218.6,125.1 153.9,125.1 153.9,137 121.5,137 121.5,221.7 251,221.7 251,137 	"/>
	<circle class="st1" cx="186.2" cy="180.4" r="19.5"/>
</g>
<g>
</g>
<g>
</g>
<g>
</g>
<g>
</g>
<g>
</g>
<g>
</g>
</svg>
